<?xml version="1.0" encoding="UTF-8" standalone="no"?>
<!DOCTYPE svg PUBLIC "-//W3C//DTD SVG 1.1//EN" "http://www.w3.org/Graphics/SVG/1.1/DTD/svg11.dtd">
<!-- Generated by Microsoft Visio, SVG Export App.svg Page-1 -->
<svg xmlns="http://www.w3.org/2000/svg" xmlns:xlink="http://www.w3.org/1999/xlink" xmlns:ev="http://www.w3.org/2001/xml-events"
		xmlns:v="http://schemas.microsoft.com/visio/2003/SVGExtensions/" width="10.6282in" height="3.56312in"
		viewBox="0 0 765.232 256.544" xml:space="preserve" color-interpolation-filters="sRGB" class="st14">
	<v:documentProperties v:langID="1033" v:metric="true" v:viewMarkup="false"/>

	<style type="text/css">
	<![CDATA[
		.st1 {fill:#bdd0e9;stroke:#c7c8c8;stroke-width:0.25}
		.st2 {fill:#203864;font-family:Calibri;font-size:0.833336em}
		.st3 {fill:#61973d;stroke:#507e31;stroke-width:0.75}
		.st4 {fill:#feffff;font-family:Calibri;font-size:0.833336em}
		.st5 {font-size:1em}
		.st6 {fill:#7030a0;stroke:#c7c8c8;stroke-width:0.25}
		.st7 {fill:#d06d29;stroke:#ae5a21;stroke-width:0.75}
		.st8 {fill:#4672c4;stroke:#c7c8c8;stroke-width:0.25}
		.st9 {marker-end:url(#mrkr4-26);stroke:#4672c4;stroke-linecap:round;stroke-linejoin:round;stroke-width:1}
		.st10 {fill:#4672c4;fill-opacity:1;stroke:#4672c4;stroke-opacity:1;stroke-width:0.28409090909091}
		.st11 {fill:#c00000;stroke:#600000;stroke-width:0.75}
		.st12 {fill:none;stroke:none;stroke-width:0.25}
		.st13 {fill:#4672c4;font-family:Calibri;font-size:1.00001em}
		.st14 {fill:none;fill-rule:evenodd;font-size:12px;overflow:visible;stroke-linecap:square;stroke-miterlimit:3}
	]]>
	</style>

	<defs id="Markers">
		<g id="lend4">
			<path d="M 2 1 L 0 0 L 2 -1 L 2 1 " style="stroke:none"/>
		</g>
		<marker id="mrkr4-26" class="st10" v:arrowType="4" v:arrowSize="2" v:setback="7.04" refX="-7.04" orient="auto"
				markerUnits="strokeWidth" overflow="visible">
			<use xlink:href="#lend4" transform="scale(-3.52,-3.52) "/>
		</marker>
	</defs>
	<g v:mID="0" v:index="1" v:groupContext="foregroundPage">
		<title>Page-1</title>
		<v:pageProperties v:drawingScale="0.0393701" v:pageScale="0.0393701" v:drawingUnits="24" v:shadowOffsetX="8.50394"
				v:shadowOffsetY="-8.50394"/>
		<v:layer v:name="Connector" v:index="0"/>
		<g id="shape54-1" v:mID="54" v:groupContext="shape" transform="translate(485.344,-0.25)">
			<title>Rectangle</title>
			<desc>Log System</desc>
			<v:userDefs>
				<v:ud v:nameU="visVersion" v:val="VT0(15):26"/>
			</v:userDefs>
			<v:textBlock v:margins="rect(4,4,4,4)" v:tabSpace="42.5197" v:verticalAlign="0"/>
			<v:textRect cx="126.142" cy="177.174" width="252.29" height="158.74"/>
			<rect x="0" y="97.8043" width="252.283" height="158.74" class="st1"/>
			<text x="4" y="110.8" class="st2" v:langID="1036"><v:paragraph/><v:tabList/>Log System</text>		</g>
		<g id="shape2-4" v:mID="2" v:groupContext="shape" transform="translate(125.344,-101.589)">
			<title>Rounded Rectangle</title>
			<desc>N8N (localhost:5678)</desc>
			<v:userDefs>
				<v:ud v:nameU="CTypeTopLeftSnip" v:prompt="" v:val="VT0(0):5"/>
				<v:ud v:nameU="CTypeTopRightSnip" v:prompt="" v:val="VT0(0):5"/>
				<v:ud v:nameU="CTypeBotLeftSnip" v:prompt="" v:val="VT0(0):5"/>
				<v:ud v:nameU="CTypeBotRightSnip" v:prompt="" v:val="VT0(0):5"/>
				<v:ud v:nameU="CornerLockHoriz" v:prompt="" v:val="VT0(1):5"/>
				<v:ud v:nameU="CornerLockVert" v:prompt="" v:val="VT0(1):5"/>
				<v:ud v:nameU="CornerLockDiag" v:prompt="" v:val="VT0(0):5"/>
				<v:ud v:nameU="TopLeftOffset" v:prompt="" v:val="VT0(0.15748031496063):24"/>
				<v:ud v:nameU="TopRightOffset" v:prompt="" v:val="VT0(0.15748031496063):24"/>
				<v:ud v:nameU="BotLeftOffset" v:prompt="" v:val="VT0(0.15748031496063):24"/>
				<v:ud v:nameU="BotRightOffset" v:prompt="" v:val="VT0(0.15748031496063):24"/>
				<v:ud v:nameU="visVersion" v:prompt="" v:val="VT0(15):26"/>
				<v:ud v:nameU="TopLeftOffset" v:prompt="" v:val="VT0(0.13779527119291):1"/>
				<v:ud v:nameU="TopRightOffset" v:prompt="" v:val="VT0(0.13779527119291):1"/>
				<v:ud v:nameU="BotLeftOffset" v:prompt="" v:val="VT0(0.13779527119291):1"/>
				<v:ud v:nameU="BotRightOffset" v:prompt="" v:val="VT0(0.13779527119291):1"/>
			</v:userDefs>
			<v:textBlock v:margins="rect(4,4,4,4)" v:tabSpace="42.5197"/>
			<v:textRect cx="49.6063" cy="238.828" width="99.22" height="35.4331"/>
			<path d="M9.92 256.54 L89.29 256.54 A9.9211 9.9211 -180 0 0 99.21 246.62 L99.21 231.03 A9.9211 9.9211 -180 0 0 89.29
						 221.11 L9.92 221.11 A9.9211 9.9211 -180 0 0 0 231.03 L0 246.62 A9.9211 9.9211 -180 0 0 9.92 256.54 Z"
					class="st3"/>
			<text x="40.62" y="235.83" class="st4" v:langID="1036"><v:paragraph v:horizAlign="1"/><v:tabList/>N8N<v:newlineChar/><tspan
						x="16.76" dy="1.2em" class="st5">(localhost:5678)</tspan></text>		</g>
		<g id="shape3-8" v:mID="3" v:groupContext="shape" transform="translate(125.344,-14.7776)">
			<title>Rounded Rectangle.3</title>
			<desc>Ollama</desc>
			<v:userDefs>
				<v:ud v:nameU="CTypeTopLeftSnip" v:prompt="" v:val="VT0(0):5"/>
				<v:ud v:nameU="CTypeTopRightSnip" v:prompt="" v:val="VT0(0):5"/>
				<v:ud v:nameU="CTypeBotLeftSnip" v:prompt="" v:val="VT0(0):5"/>
				<v:ud v:nameU="CTypeBotRightSnip" v:prompt="" v:val="VT0(0):5"/>
				<v:ud v:nameU="CornerLockHoriz" v:prompt="" v:val="VT0(1):5"/>
				<v:ud v:nameU="CornerLockVert" v:prompt="" v:val="VT0(1):5"/>
				<v:ud v:nameU="CornerLockDiag" v:prompt="" v:val="VT0(0):5"/>
				<v:ud v:nameU="TopLeftOffset" v:prompt="" v:val="VT0(0.15748031496063):24"/>
				<v:ud v:nameU="TopRightOffset" v:prompt="" v:val="VT0(0.15748031496063):24"/>
				<v:ud v:nameU="BotLeftOffset" v:prompt="" v:val="VT0(0.15748031496063):24"/>
				<v:ud v:nameU="BotRightOffset" v:prompt="" v:val="VT0(0.15748031496063):24"/>
				<v:ud v:nameU="visVersion" v:prompt="" v:val="VT0(15):26"/>
				<v:ud v:nameU="TopLeftOffset" v:prompt="" v:val="VT0(0.13779527119291):1"/>
				<v:ud v:nameU="TopRightOffset" v:prompt="" v:val="VT0(0.13779527119291):1"/>
				<v:ud v:nameU="BotLeftOffset" v:prompt="" v:val="VT0(0.13779527119291):1"/>
				<v:ud v:nameU="BotRightOffset" v:prompt="" v:val="VT0(0.13779527119291):1"/>
			</v:userDefs>
			<v:textBlock v:margins="rect(4,4,4,4)" v:tabSpace="42.5197"/>
			<v:textRect cx="49.6063" cy="238.828" width="99.22" height="35.4331"/>
			<path d="M9.92 256.54 L89.29 256.54 A9.9211 9.9211 -180 0 0 99.21 246.62 L99.21 231.03 A9.9211 9.9211 -180 0 0 89.29
						 221.11 L9.92 221.11 A9.9211 9.9211 -180 0 0 0 231.03 L0 246.62 A9.9211 9.9211 -180 0 0 9.92 256.54 Z"
					class="st6"/>
			<text x="35.22" y="241.83" class="st4" v:langID="1036"><v:paragraph v:horizAlign="1"/><v:tabList/>Ollama</text>		</g>
		<g id="shape4-11" v:mID="4" v:groupContext="shape" transform="translate(249.939,-101.589)">
			<title>Rounded Rectangle.4</title>
			<desc>MongoDB</desc>
			<v:userDefs>
				<v:ud v:nameU="CTypeTopLeftSnip" v:prompt="" v:val="VT0(0):5"/>
				<v:ud v:nameU="CTypeTopRightSnip" v:prompt="" v:val="VT0(0):5"/>
				<v:ud v:nameU="CTypeBotLeftSnip" v:prompt="" v:val="VT0(0):5"/>
				<v:ud v:nameU="CTypeBotRightSnip" v:prompt="" v:val="VT0(0):5"/>
				<v:ud v:nameU="CornerLockHoriz" v:prompt="" v:val="VT0(1):5"/>
				<v:ud v:nameU="CornerLockVert" v:prompt="" v:val="VT0(1):5"/>
				<v:ud v:nameU="CornerLockDiag" v:prompt="" v:val="VT0(0):5"/>
				<v:ud v:nameU="TopLeftOffset" v:prompt="" v:val="VT0(0.15748031496063):24"/>
				<v:ud v:nameU="TopRightOffset" v:prompt="" v:val="VT0(0.15748031496063):24"/>
				<v:ud v:nameU="BotLeftOffset" v:prompt="" v:val="VT0(0.15748031496063):24"/>
				<v:ud v:nameU="BotRightOffset" v:prompt="" v:val="VT0(0.15748031496063):24"/>
				<v:ud v:nameU="visVersion" v:prompt="" v:val="VT0(15):26"/>
				<v:ud v:nameU="TopLeftOffset" v:prompt="" v:val="VT0(0.13779527119291):1"/>
				<v:ud v:nameU="TopRightOffset" v:prompt="" v:val="VT0(0.13779527119291):1"/>
				<v:ud v:nameU="BotLeftOffset" v:prompt="" v:val="VT0(0.13779527119291):1"/>
				<v:ud v:nameU="BotRightOffset" v:prompt="" v:val="VT0(0.13779527119291):1"/>
			</v:userDefs>
			<v:textBlock v:margins="rect(4,4,4,4)" v:tabSpace="42.5197"/>
			<v:textRect cx="49.6063" cy="238.828" width="99.22" height="35.4331"/>
			<path d="M9.92 256.54 L89.29 256.54 A9.9211 9.9211 -180 0 0 99.21 246.62 L99.21 231.03 A9.9211 9.9211 -180 0 0 89.29
						 221.11 L9.92 221.11 A9.9211 9.9211 -180 0 0 0 231.03 L0 246.62 A9.9211 9.9211 -180 0 0 9.92 256.54 Z"
					class="st7"/>
			<text x="29.28" y="241.83" class="st4" v:langID="1036"><v:paragraph v:horizAlign="1"/><v:tabList/>MongoDB</text>		</g>
		<g id="shape5-14" v:mID="5" v:groupContext="shape" transform="translate(374.533,-101.589)">
			<title>Rounded Rectangle.5</title>
			<desc>NextJS API</desc>
			<v:userDefs>
				<v:ud v:nameU="CTypeTopLeftSnip" v:prompt="" v:val="VT0(0):5"/>
				<v:ud v:nameU="CTypeTopRightSnip" v:prompt="" v:val="VT0(0):5"/>
				<v:ud v:nameU="CTypeBotLeftSnip" v:prompt="" v:val="VT0(0):5"/>
				<v:ud v:nameU="CTypeBotRightSnip" v:prompt="" v:val="VT0(0):5"/>
				<v:ud v:nameU="CornerLockHoriz" v:prompt="" v:val="VT0(1):5"/>
				<v:ud v:nameU="CornerLockVert" v:prompt="" v:val="VT0(1):5"/>
				<v:ud v:nameU="CornerLockDiag" v:prompt="" v:val="VT0(0):5"/>
				<v:ud v:nameU="TopLeftOffset" v:prompt="" v:val="VT0(0.15748031496063):24"/>
				<v:ud v:nameU="TopRightOffset" v:prompt="" v:val="VT0(0.15748031496063):24"/>
				<v:ud v:nameU="BotLeftOffset" v:prompt="" v:val="VT0(0.15748031496063):24"/>
				<v:ud v:nameU="BotRightOffset" v:prompt="" v:val="VT0(0.15748031496063):24"/>
				<v:ud v:nameU="visVersion" v:prompt="" v:val="VT0(15):26"/>
				<v:ud v:nameU="TopLeftOffset" v:prompt="" v:val="VT0(0.13779527119291):1"/>
				<v:ud v:nameU="TopRightOffset" v:prompt="" v:val="VT0(0.13779527119291):1"/>
				<v:ud v:nameU="BotLeftOffset" v:prompt="" v:val="VT0(0.13779527119291):1"/>
				<v:ud v:nameU="BotRightOffset" v:prompt="" v:val="VT0(0.13779527119291):1"/>
			</v:userDefs>
			<v:textBlock v:margins="rect(4,4,4,4)" v:tabSpace="42.5197"/>
			<v:textRect cx="49.6063" cy="238.828" width="99.22" height="35.4331"/>
			<path d="M9.92 256.54 L89.29 256.54 A9.9211 9.9211 -180 0 0 99.21 246.62 L99.21 231.03 A9.9211 9.9211 -180 0 0 89.29
						 221.11 L9.92 221.11 A9.9211 9.9211 -180 0 0 0 231.03 L0 246.62 A9.9211 9.9211 -180 0 0 9.92 256.54 Z"
					class="st3"/>
			<text x="28.29" y="241.83" class="st4" v:langID="1036"><v:paragraph v:horizAlign="1"/><v:tabList/>NextJS API</text>		</g>
		<g id="shape6-17" v:mID="6" v:groupContext="shape" transform="translate(249.939,-188.4)">
			<title>Rounded Rectangle.6</title>
			<desc>NextJS App (localhost:3000)</desc>
			<v:userDefs>
				<v:ud v:nameU="CTypeTopLeftSnip" v:prompt="" v:val="VT0(0):5"/>
				<v:ud v:nameU="CTypeTopRightSnip" v:prompt="" v:val="VT0(0):5"/>
				<v:ud v:nameU="CTypeBotLeftSnip" v:prompt="" v:val="VT0(0):5"/>
				<v:ud v:nameU="CTypeBotRightSnip" v:prompt="" v:val="VT0(0):5"/>
				<v:ud v:nameU="CornerLockHoriz" v:prompt="" v:val="VT0(1):5"/>
				<v:ud v:nameU="CornerLockVert" v:prompt="" v:val="VT0(1):5"/>
				<v:ud v:nameU="CornerLockDiag" v:prompt="" v:val="VT0(0):5"/>
				<v:ud v:nameU="TopLeftOffset" v:prompt="" v:val="VT0(0.15748031496063):24"/>
				<v:ud v:nameU="TopRightOffset" v:prompt="" v:val="VT0(0.15748031496063):24"/>
				<v:ud v:nameU="BotLeftOffset" v:prompt="" v:val="VT0(0.15748031496063):24"/>
				<v:ud v:nameU="BotRightOffset" v:prompt="" v:val="VT0(0.15748031496063):24"/>
				<v:ud v:nameU="visVersion" v:prompt="" v:val="VT0(15):26"/>
				<v:ud v:nameU="TopLeftOffset" v:prompt="" v:val="VT0(0.13779527119291):1"/>
				<v:ud v:nameU="TopRightOffset" v:prompt="" v:val="VT0(0.13779527119291):1"/>
				<v:ud v:nameU="BotLeftOffset" v:prompt="" v:val="VT0(0.13779527119291):1"/>
				<v:ud v:nameU="BotRightOffset" v:prompt="" v:val="VT0(0.13779527119291):1"/>
			</v:userDefs>
			<v:textBlock v:margins="rect(4,4,4,4)" v:tabSpace="42.5197"/>
			<v:textRect cx="49.6063" cy="238.828" width="99.22" height="35.4331"/>
			<path d="M9.92 256.54 L89.29 256.54 A9.9211 9.9211 -180 0 0 99.21 246.62 L99.21 231.03 A9.9211 9.9211 -180 0 0 89.29
						 221.11 L9.92 221.11 A9.9211 9.9211 -180 0 0 0 231.03 L0 246.62 A9.9211 9.9211 -180 0 0 9.92 256.54 Z"
					class="st8"/>
			<text x="26.88" y="235.83" class="st4" v:langID="1036"><v:paragraph v:horizAlign="1"/><v:tabList/>NextJS App<v:newlineChar/><tspan
						x="16.76" dy="1.2em" class="st5">(localhost:3000)</tspan></text>		</g>
		<g id="shape10-21" v:mID="10" v:groupContext="shape" v:layerMember="0" transform="translate(299.545,-188.4)">
			<title>Dynamic connector.10</title>
			<path d="M0 256.54 L0 280.28 L-124.59 280.28 L-124.59 300.88" class="st9"/>
		</g>
		<g id="shape11-27" v:mID="11" v:groupContext="shape" v:layerMember="0" transform="translate(167.864,-101.589)">
			<title>Dynamic connector.11</title>
			<path d="M7.09 256.54 L7.09 300.88" class="st9"/>
		</g>
		<g id="shape15-32" v:mID="15" v:groupContext="shape" v:layerMember="0" transform="translate(299.545,-188.4)">
			<title>Dynamic connector</title>
			<path d="M0 256.54 L0 280.28 L124.59 280.28 L124.59 300.88" class="st9"/>
		</g>
		<g id="shape16-37" v:mID="16" v:groupContext="shape" v:layerMember="0" transform="translate(224.557,-112.219)">
			<title>Dynamic connector.16</title>
			<path d="M0 249.46 L18.34 249.46" class="st9"/>
		</g>
		<g id="shape17-42" v:mID="17" v:groupContext="shape" v:layerMember="0" transform="translate(374.533,-112.219)">
			<title>Dynamic connector.17</title>
			<path d="M0 249.46 L-18.34 249.46" class="st9"/>
		</g>
		<g id="shape29-47" v:mID="29" v:groupContext="shape" transform="translate(623.722,-101.589)">
			<title>Rounded Rectangle.29</title>
			<desc>Grafana (localhost:5601)</desc>
			<v:userDefs>
				<v:ud v:nameU="CTypeTopLeftSnip" v:prompt="" v:val="VT0(0):5"/>
				<v:ud v:nameU="CTypeTopRightSnip" v:prompt="" v:val="VT0(0):5"/>
				<v:ud v:nameU="CTypeBotLeftSnip" v:prompt="" v:val="VT0(0):5"/>
				<v:ud v:nameU="CTypeBotRightSnip" v:prompt="" v:val="VT0(0):5"/>
				<v:ud v:nameU="CornerLockHoriz" v:prompt="" v:val="VT0(1):5"/>
				<v:ud v:nameU="CornerLockVert" v:prompt="" v:val="VT0(1):5"/>
				<v:ud v:nameU="CornerLockDiag" v:prompt="" v:val="VT0(0):5"/>
				<v:ud v:nameU="TopLeftOffset" v:prompt="" v:val="VT0(0.15748031496063):24"/>
				<v:ud v:nameU="TopRightOffset" v:prompt="" v:val="VT0(0.15748031496063):24"/>
				<v:ud v:nameU="BotLeftOffset" v:prompt="" v:val="VT0(0.15748031496063):24"/>
				<v:ud v:nameU="BotRightOffset" v:prompt="" v:val="VT0(0.15748031496063):24"/>
				<v:ud v:nameU="visVersion" v:prompt="" v:val="VT0(15):26"/>
				<v:ud v:nameU="TopLeftOffset" v:prompt="" v:val="VT0(0.13779527119291):1"/>
				<v:ud v:nameU="TopRightOffset" v:prompt="" v:val="VT0(0.13779527119291):1"/>
				<v:ud v:nameU="BotLeftOffset" v:prompt="" v:val="VT0(0.13779527119291):1"/>
				<v:ud v:nameU="BotRightOffset" v:prompt="" v:val="VT0(0.13779527119291):1"/>
			</v:userDefs>
			<v:textBlock v:margins="rect(4,4,4,4)" v:tabSpace="42.5197"/>
			<v:textRect cx="49.6063" cy="238.828" width="99.22" height="35.4331"/>
			<path d="M9.92 256.54 L89.29 256.54 A9.9211 9.9211 -180 0 0 99.21 246.62 L99.21 231.03 A9.9211 9.9211 -180 0 0 89.29
						 221.11 L9.92 221.11 A9.9211 9.9211 -180 0 0 0 231.03 L0 246.62 A9.9211 9.9211 -180 0 0 9.92 256.54 Z"
					class="st11"/>
			<text x="33.37" y="235.83" class="st4" v:langID="1036"><v:paragraph v:horizAlign="1"/><v:tabList/>Grafana<v:newlineChar/><tspan
						x="16.76" dy="1.2em" class="st5">(localhost:5601)</tspan></text>		</g>
		<g id="shape30-51" v:mID="30" v:groupContext="shape" transform="translate(623.722,-14.7776)">
			<title>Rounded Rectangle.30</title>
			<desc>Loki</desc>
			<v:userDefs>
				<v:ud v:nameU="CTypeTopLeftSnip" v:prompt="" v:val="VT0(0):5"/>
				<v:ud v:nameU="CTypeTopRightSnip" v:prompt="" v:val="VT0(0):5"/>
				<v:ud v:nameU="CTypeBotLeftSnip" v:prompt="" v:val="VT0(0):5"/>
				<v:ud v:nameU="CTypeBotRightSnip" v:prompt="" v:val="VT0(0):5"/>
				<v:ud v:nameU="CornerLockHoriz" v:prompt="" v:val="VT0(1):5"/>
				<v:ud v:nameU="CornerLockVert" v:prompt="" v:val="VT0(1):5"/>
				<v:ud v:nameU="CornerLockDiag" v:prompt="" v:val="VT0(0):5"/>
				<v:ud v:nameU="TopLeftOffset" v:prompt="" v:val="VT0(0.15748031496063):24"/>
				<v:ud v:nameU="TopRightOffset" v:prompt="" v:val="VT0(0.15748031496063):24"/>
				<v:ud v:nameU="BotLeftOffset" v:prompt="" v:val="VT0(0.15748031496063):24"/>
				<v:ud v:nameU="BotRightOffset" v:prompt="" v:val="VT0(0.15748031496063):24"/>
				<v:ud v:nameU="visVersion" v:prompt="" v:val="VT0(15):26"/>
				<v:ud v:nameU="TopLeftOffset" v:prompt="" v:val="VT0(0.13779527119291):1"/>
				<v:ud v:nameU="TopRightOffset" v:prompt="" v:val="VT0(0.13779527119291):1"/>
				<v:ud v:nameU="BotLeftOffset" v:prompt="" v:val="VT0(0.13779527119291):1"/>
				<v:ud v:nameU="BotRightOffset" v:prompt="" v:val="VT0(0.13779527119291):1"/>
			</v:userDefs>
			<v:textBlock v:margins="rect(4,4,4,4)" v:tabSpace="42.5197"/>
			<v:textRect cx="49.6063" cy="238.828" width="99.22" height="35.4331"/>
			<path d="M9.92 256.54 L89.29 256.54 A9.9211 9.9211 -180 0 0 99.21 246.62 L99.21 231.03 A9.9211 9.9211 -180 0 0 89.29
						 221.11 L9.92 221.11 A9.9211 9.9211 -180 0 0 0 231.03 L0 246.62 A9.9211 9.9211 -180 0 0 9.92 256.54 Z"
					class="st7"/>
			<text x="41.45" y="241.83" class="st4" v:langID="1036"><v:paragraph v:horizAlign="1"/><v:tabList/>Loki</text>		</g>
		<g id="shape31-54" v:mID="31" v:groupContext="shape" transform="translate(499.128,-14.7776)">
			<title>Rounded Rectangle.31</title>
			<desc>Vector</desc>
			<v:userDefs>
				<v:ud v:nameU="CTypeTopLeftSnip" v:prompt="" v:val="VT0(0):5"/>
				<v:ud v:nameU="CTypeTopRightSnip" v:prompt="" v:val="VT0(0):5"/>
				<v:ud v:nameU="CTypeBotLeftSnip" v:prompt="" v:val="VT0(0):5"/>
				<v:ud v:nameU="CTypeBotRightSnip" v:prompt="" v:val="VT0(0):5"/>
				<v:ud v:nameU="CornerLockHoriz" v:prompt="" v:val="VT0(1):5"/>
				<v:ud v:nameU="CornerLockVert" v:prompt="" v:val="VT0(1):5"/>
				<v:ud v:nameU="CornerLockDiag" v:prompt="" v:val="VT0(0):5"/>
				<v:ud v:nameU="TopLeftOffset" v:prompt="" v:val="VT0(0.15748031496063):24"/>
				<v:ud v:nameU="TopRightOffset" v:prompt="" v:val="VT0(0.15748031496063):24"/>
				<v:ud v:nameU="BotLeftOffset" v:prompt="" v:val="VT0(0.15748031496063):24"/>
				<v:ud v:nameU="BotRightOffset" v:prompt="" v:val="VT0(0.15748031496063):24"/>
				<v:ud v:nameU="visVersion" v:prompt="" v:val="VT0(15):26"/>
				<v:ud v:nameU="TopLeftOffset" v:prompt="" v:val="VT0(0.13779527119291):1"/>
				<v:ud v:nameU="TopRightOffset" v:prompt="" v:val="VT0(0.13779527119291):1"/>
				<v:ud v:nameU="BotLeftOffset" v:prompt="" v:val="VT0(0.13779527119291):1"/>
				<v:ud v:nameU="BotRightOffset" v:prompt="" v:val="VT0(0.13779527119291):1"/>
			</v:userDefs>
			<v:textBlock v:margins="rect(4,4,4,4)" v:tabSpace="42.5197"/>
			<v:textRect cx="49.6063" cy="238.828" width="99.22" height="35.4331"/>
			<path d="M9.92 256.54 L89.29 256.54 A9.9211 9.9211 -180 0 0 99.21 246.62 L99.21 231.03 A9.9211 9.9211 -180 0 0 89.29
						 221.11 L9.92 221.11 A9.9211 9.9211 -180 0 0 0 231.03 L0 246.62 A9.9211 9.9211 -180 0 0 9.92 256.54 Z"
					class="st7"/>
			<text x="36.11" y="241.83" class="st4" v:langID="1036"><v:paragraph v:horizAlign="1"/><v:tabList/>Vector</text>		</g>
		<g id="shape32-57" v:mID="32" v:groupContext="shape" transform="translate(499.128,-101.589)">
			<title>Rounded Rectangle.32</title>
			<desc>Vector Proxy</desc>
			<v:userDefs>
				<v:ud v:nameU="CTypeTopLeftSnip" v:prompt="" v:val="VT0(0):5"/>
				<v:ud v:nameU="CTypeTopRightSnip" v:prompt="" v:val="VT0(0):5"/>
				<v:ud v:nameU="CTypeBotLeftSnip" v:prompt="" v:val="VT0(0):5"/>
				<v:ud v:nameU="CTypeBotRightSnip" v:prompt="" v:val="VT0(0):5"/>
				<v:ud v:nameU="CornerLockHoriz" v:prompt="" v:val="VT0(1):5"/>
				<v:ud v:nameU="CornerLockVert" v:prompt="" v:val="VT0(1):5"/>
				<v:ud v:nameU="CornerLockDiag" v:prompt="" v:val="VT0(0):5"/>
				<v:ud v:nameU="TopLeftOffset" v:prompt="" v:val="VT0(0.15748031496063):24"/>
				<v:ud v:nameU="TopRightOffset" v:prompt="" v:val="VT0(0.15748031496063):24"/>
				<v:ud v:nameU="BotLeftOffset" v:prompt="" v:val="VT0(0.15748031496063):24"/>
				<v:ud v:nameU="BotRightOffset" v:prompt="" v:val="VT0(0.15748031496063):24"/>
				<v:ud v:nameU="visVersion" v:prompt="" v:val="VT0(15):26"/>
				<v:ud v:nameU="TopLeftOffset" v:prompt="" v:val="VT0(0.13779527119291):1"/>
				<v:ud v:nameU="TopRightOffset" v:prompt="" v:val="VT0(0.13779527119291):1"/>
				<v:ud v:nameU="BotLeftOffset" v:prompt="" v:val="VT0(0.13779527119291):1"/>
				<v:ud v:nameU="BotRightOffset" v:prompt="" v:val="VT0(0.13779527119291):1"/>
			</v:userDefs>
			<v:textBlock v:margins="rect(4,4,4,4)" v:tabSpace="42.5197"/>
			<v:textRect cx="49.6063" cy="238.828" width="99.22" height="35.4331"/>
			<path d="M9.92 256.54 L89.29 256.54 A9.9211 9.9211 -180 0 0 99.21 246.62 L99.21 231.03 A9.9211 9.9211 -180 0 0 89.29
						 221.11 L9.92 221.11 A9.9211 9.9211 -180 0 0 0 231.03 L0 246.62 A9.9211 9.9211 -180 0 0 9.92 256.54 Z"
					class="st3"/>
			<text x="36.11" y="235.83" class="st4" v:langID="1036"><v:paragraph v:horizAlign="1"/><v:tabList/>Vector<v:newlineChar/><tspan
						x="38.21" dy="1.2em" class="st5">Proxy</tspan></text>		</g>
		<g id="shape33-61" v:mID="33" v:groupContext="shape" transform="translate(0.749838,-14.7776)">
			<title>Rounded Rectangle.33</title>
			<desc>Puppeteer (scraping)</desc>
			<v:userDefs>
				<v:ud v:nameU="CTypeTopLeftSnip" v:prompt="" v:val="VT0(0):5"/>
				<v:ud v:nameU="CTypeTopRightSnip" v:prompt="" v:val="VT0(0):5"/>
				<v:ud v:nameU="CTypeBotLeftSnip" v:prompt="" v:val="VT0(0):5"/>
				<v:ud v:nameU="CTypeBotRightSnip" v:prompt="" v:val="VT0(0):5"/>
				<v:ud v:nameU="CornerLockHoriz" v:prompt="" v:val="VT0(1):5"/>
				<v:ud v:nameU="CornerLockVert" v:prompt="" v:val="VT0(1):5"/>
				<v:ud v:nameU="CornerLockDiag" v:prompt="" v:val="VT0(0):5"/>
				<v:ud v:nameU="TopLeftOffset" v:prompt="" v:val="VT0(0.15748031496063):24"/>
				<v:ud v:nameU="TopRightOffset" v:prompt="" v:val="VT0(0.15748031496063):24"/>
				<v:ud v:nameU="BotLeftOffset" v:prompt="" v:val="VT0(0.15748031496063):24"/>
				<v:ud v:nameU="BotRightOffset" v:prompt="" v:val="VT0(0.15748031496063):24"/>
				<v:ud v:nameU="visVersion" v:prompt="" v:val="VT0(15):26"/>
				<v:ud v:nameU="TopLeftOffset" v:prompt="" v:val="VT0(0.13779527119291):1"/>
				<v:ud v:nameU="TopRightOffset" v:prompt="" v:val="VT0(0.13779527119291):1"/>
				<v:ud v:nameU="BotLeftOffset" v:prompt="" v:val="VT0(0.13779527119291):1"/>
				<v:ud v:nameU="BotRightOffset" v:prompt="" v:val="VT0(0.13779527119291):1"/>
			</v:userDefs>
			<v:textBlock v:margins="rect(4,4,4,4)" v:tabSpace="42.5197"/>
			<v:textRect cx="49.6063" cy="238.828" width="99.22" height="35.4331"/>
			<path d="M9.92 256.54 L89.29 256.54 A9.9211 9.9211 -180 0 0 99.21 246.62 L99.21 231.03 A9.9211 9.9211 -180 0 0 89.29
						 221.11 L9.92 221.11 A9.9211 9.9211 -180 0 0 0 231.03 L0 246.62 A9.9211 9.9211 -180 0 0 9.92 256.54 Z"
					class="st3"/>
			<text x="28.26" y="235.83" class="st4" v:langID="1036"><v:paragraph v:horizAlign="1"/><v:tabList/>Puppeteer<v:newlineChar/><tspan
						x="29.61" dy="1.2em" class="st5">(scraping)</tspan></text>		</g>
		<g id="shape34-65" v:mID="34" v:groupContext="shape" v:layerMember="0" transform="translate(666.242,-101.589)">
			<title>Dynamic connector.34</title>
			<path d="M7.09 256.54 L7.09 300.88" class="st9"/>
		</g>
		<g id="shape37-70" v:mID="37" v:groupContext="shape" v:layerMember="0" transform="translate(541.647,-101.589)">
			<title>Dynamic connector.37</title>
			<path d="M7.09 256.54 L7.09 300.88" class="st9"/>
		</g>
		<g id="shape39-75" v:mID="39" v:groupContext="shape" v:layerMember="0" transform="translate(125.344,-119.305)">
			<title>Dynamic connector.39</title>
			<path d="M0 256.54 L-74.99 256.54 L-74.99 318.6" class="st9"/>
		</g>
		<g id="shape40-80" v:mID="40" v:groupContext="shape" v:layerMember="0" transform="translate(473.746,-112.219)">
			<title>Dynamic connector.40</title>
			<path d="M0 249.46 L18.34 249.46" class="st9"/>
		</g>
		<g id="group46-85" transform="translate(621.067,-175.998)" v:mID="46" v:groupContext="group">
			<title>Sheet.46</title>
			<g id="shape19-86" v:mID="19" v:groupContext="shape" transform="translate(-4.79616E-14,-33.6614)">
				<title>Circle</title>
				<v:userDefs>
					<v:ud v:nameU="visVersion" v:val="VT0(15):26"/>
				</v:userDefs>
				<path d="M0 250.88 A5.66929 5.66929 0 0 1 11.34 250.88 A5.66929 5.66929 0 1 1 0 250.88 Z" class="st6"/>
			</g>
			<g id="shape21-88" v:mID="21" v:groupContext="shape" transform="translate(-4.79616E-14,-67.6772)">
				<title>Circle.35</title>
				<v:userDefs>
					<v:ud v:nameU="visVersion" v:val="VT0(15):26"/>
				</v:userDefs>
				<path d="M0 250.88 A5.66929 5.66929 0 0 1 11.34 250.88 A5.66929 5.66929 0 1 1 0 250.88 Z" class="st8"/>
			</g>
			<g id="shape22-90" v:mID="22" v:groupContext="shape" transform="translate(-4.79616E-14,-16.6536)">
				<title>Circle.36</title>
				<v:userDefs>
					<v:ud v:nameU="visVersion" v:val="VT0(15):26"/>
				</v:userDefs>
				<path d="M0 250.88 A5.66929 5.66929 0 0 1 11.34 250.88 A5.66929 5.66929 0 1 1 0 250.88 Z" class="st7"/>
			</g>
			<g id="shape23-92" v:mID="23" v:groupContext="shape" transform="translate(-4.79616E-14,-50.6693)">
				<title>Circle.37</title>
				<v:userDefs>
					<v:ud v:nameU="visVersion" v:val="VT0(15):26"/>
				</v:userDefs>
				<path d="M0 250.88 A5.66929 5.66929 0 0 1 11.34 250.88 A5.66929 5.66929 0 1 1 0 250.88 Z" class="st3"/>
			</g>
			<g id="shape24-94" v:mID="24" v:groupContext="shape" transform="translate(13.4646,-67.6772)">
				<title>Sheet.24</title>
				<desc>Front</desc>
				<v:textBlock v:margins="rect(4,4,4,4)" v:tabSpace="42.5197"/>
				<v:textRect cx="65.1968" cy="250.875" width="130.4" height="11.3386"/>
				<rect x="0" y="245.206" width="130.394" height="11.3386" class="st12"/>
				<text x="4" y="254.48" class="st13" v:langID="1036"><v:paragraph/><v:tabList/>Front</text>			</g>
			<g id="shape26-97" v:mID="26" v:groupContext="shape" transform="translate(13.4646,-50.6693)">
				<title>Sheet.26</title>
				<desc>API</desc>
				<v:textBlock v:margins="rect(4,4,4,4)" v:tabSpace="42.5197"/>
				<v:textRect cx="65.1968" cy="250.875" width="130.4" height="11.3386"/>
				<rect x="0" y="245.206" width="130.394" height="11.3386" class="st12"/>
				<text x="4" y="254.48" class="st13" v:langID="1036"><v:paragraph/><v:tabList/>API</text>			</g>
			<g id="shape27-100" v:mID="27" v:groupContext="shape" transform="translate(13.4646,-33.6614)">
				<title>Sheet.27</title>
				<desc>AI Model</desc>
				<v:textBlock v:margins="rect(4,4,4,4)" v:tabSpace="42.5197"/>
				<v:textRect cx="65.1968" cy="250.875" width="130.4" height="11.3386"/>
				<rect x="0" y="245.206" width="130.394" height="11.3386" class="st12"/>
				<text x="4" y="254.48" class="st13" v:langID="1036"><v:paragraph/><v:tabList/>AI Model</text>			</g>
			<g id="shape28-103" v:mID="28" v:groupContext="shape" transform="translate(13.4646,-16.6536)">
				<title>Sheet.28</title>
				<desc>Database</desc>
				<v:textBlock v:margins="rect(4,4,4,4)" v:tabSpace="42.5197"/>
				<v:textRect cx="65.1968" cy="250.875" width="130.4" height="11.3386"/>
				<rect x="0" y="245.206" width="130.394" height="11.3386" class="st12"/>
				<text x="4" y="254.48" class="st13" v:langID="1036"><v:paragraph/><v:tabList/>Database</text>			</g>
			<g id="shape44-106" v:mID="44" v:groupContext="shape" transform="translate(0.0570858,0)">
				<title>Circle.44</title>
				<v:userDefs>
					<v:ud v:nameU="visVersion" v:val="VT0(15):26"/>
				</v:userDefs>
				<path d="M0 250.88 A5.66929 5.66929 0 0 1 11.34 250.88 A5.66929 5.66929 0 1 1 0 250.88 Z" class="st11"/>
			</g>
			<g id="shape45-108" v:mID="45" v:groupContext="shape" transform="translate(13.5217,-1.40792E-05)">
				<title>Sheet.45</title>
				<desc>Admin Tool</desc>
				<v:textBlock v:margins="rect(4,4,4,4)" v:tabSpace="42.5197"/>
				<v:textRect cx="65.1968" cy="250.875" width="130.4" height="11.3386"/>
				<rect x="0" y="245.206" width="130.394" height="11.3386" class="st12"/>
				<text x="4" y="254.48" class="st13" v:langID="1036"><v:paragraph/><v:tabList/>Admin Tool</text>			</g>
		</g>
		<g id="shape49-111" v:mID="49" v:groupContext="shape" v:layerMember="0" transform="translate(349.151,-206.116)">
			<title>Dynamic connector.49</title>
			<path d="M0 256.54 L199.58 256.54 L199.58 318.6" class="st9"/>
		</g>
		<g id="shape56-116" v:mID="56" v:groupContext="shape" v:layerMember="0" transform="translate(598.34,-25.4075)">
			<title>Dynamic connector.56</title>
			<path d="M0 249.46 L18.34 249.46" class="st9"/>
		</g>
	</g>
</svg>
